<?xml version="1.0" encoding="UTF-8" standalone="no"?>
<!-- Created with Inkscape (http://www.inkscape.org/) -->

<svg
   width="232.701"
   height="144.52"
   viewBox="0 0 61.568812 38.237597"
   version="1.1"
   id="svg1"
   inkscape:version="1.3.2 (091e20e, 2023-11-25, custom)"
   sodipodi:docname="detalheGrandeClaro.svg"
   xmlns:inkscape="http://www.inkscape.org/namespaces/inkscape"
   xmlns:sodipodi="http://sodipodi.sourceforge.net/DTD/sodipodi-0.dtd"
   xmlns="http://www.w3.org/2000/svg"
   xmlns:svg="http://www.w3.org/2000/svg">
  <sodipodi:namedview
     id="namedview1"
     pagecolor="#ffffff"
     bordercolor="#000000"
     borderopacity="0.25"
     inkscape:showpageshadow="2"
     inkscape:pageopacity="0.0"
     inkscape:pagecheckerboard="0"
     inkscape:deskcolor="#d1d1d1"
     inkscape:document-units="px"
     inkscape:zoom="1.0370058"
     inkscape:cx="106.07462"
     inkscape:cy="48.697895"
     inkscape:window-width="1920"
     inkscape:window-height="1057"
     inkscape:window-x="1072"
     inkscape:window-y="487"
     inkscape:window-maximized="1"
     inkscape:current-layer="layer1" />
  <defs
     id="defs1">
    <inkscape:path-effect
       effect="fillet_chamfer"
       id="path-effect1"
       is_visible="true"
       lpeversion="1"
       nodesatellites_param="F,0,0,1,0,0,0,1 @ F,0,0,1,0,0,0,1 @ F,0,0,1,0,0,0,1 @ F,0,0,1,0,0,0,1 @ F,0,0,1,0,0,0,1 @ F,0,0,1,0,0,0,1 @ F,0,0,1,0,0,0,1 @ F,0,0,1,0,0,0,1"
       radius="0"
       unit="px"
       method="auto"
       mode="F"
       chamfer_steps="1"
       flexible="false"
       use_knot_distance="true"
       apply_no_radius="true"
       apply_with_radius="true"
       only_selected="false"
       hide_knots="false" />
    <inkscape:path-effect
       effect="fillet_chamfer"
       id="path-effect1-2"
       is_visible="true"
       lpeversion="1"
       nodesatellites_param="F,0,0,1,0,0,0,1 @ F,0,0,1,0,0,0,1 @ F,0,0,1,0,0,0,1 @ F,0,0,1,0,0,0,1 @ F,0,0,1,0,0,0,1 @ F,0,0,1,0,0,0,1 @ F,0,0,1,0,0,0,1 @ F,0,0,1,0,0,0,1"
       radius="0"
       unit="px"
       method="auto"
       mode="F"
       chamfer_steps="1"
       flexible="false"
       use_knot_distance="true"
       apply_no_radius="true"
       apply_with_radius="true"
       only_selected="false"
       hide_knots="false" />
    <inkscape:path-effect
       effect="fillet_chamfer"
       id="path-effect1-2-9"
       is_visible="true"
       lpeversion="1"
       nodesatellites_param="F,0,0,1,0,0,0,1 @ F,0,0,1,0,0,0,1 @ F,0,0,1,0,0,0,1 @ F,0,0,1,0,0,0,1 @ F,0,0,1,0,0,0,1 @ F,0,0,1,0,0,0,1 @ F,0,0,1,0,0,0,1 @ F,0,0,1,0,0,0,1"
       radius="0"
       unit="px"
       method="auto"
       mode="F"
       chamfer_steps="1"
       flexible="false"
       use_knot_distance="true"
       apply_no_radius="true"
       apply_with_radius="true"
       only_selected="false"
       hide_knots="false" />
    <inkscape:path-effect
       effect="fillet_chamfer"
       id="path-effect1-2-7"
       is_visible="true"
       lpeversion="1"
       nodesatellites_param="F,0,0,1,0,0,0,1 @ F,0,0,1,0,0,0,1 @ F,0,0,1,0,0,0,1 @ F,0,0,1,0,0,0,1 @ F,0,0,1,0,0,0,1 @ F,0,0,1,0,0,0,1 @ F,0,0,1,0,0,0,1 @ F,0,0,1,0,0,0,1"
       radius="0"
       unit="px"
       method="auto"
       mode="F"
       chamfer_steps="1"
       flexible="false"
       use_knot_distance="true"
       apply_no_radius="true"
       apply_with_radius="true"
       only_selected="false"
       hide_knots="false" />
    <inkscape:path-effect
       effect="fillet_chamfer"
       id="path-effect1-2-6"
       is_visible="true"
       lpeversion="1"
       nodesatellites_param="F,0,0,1,0,0,0,1 @ F,0,0,1,0,0,0,1 @ F,0,0,1,0,0,0,1 @ F,0,0,1,0,0,0,1 @ F,0,0,1,0,0,0,1 @ F,0,0,1,0,0,0,1 @ F,0,0,1,0,0,0,1 @ F,0,0,1,0,0,0,1"
       radius="0"
       unit="px"
       method="auto"
       mode="F"
       chamfer_steps="1"
       flexible="false"
       use_knot_distance="true"
       apply_no_radius="true"
       apply_with_radius="true"
       only_selected="false"
       hide_knots="false" />
    <inkscape:path-effect
       effect="fillet_chamfer"
       id="path-effect1-2-5"
       is_visible="true"
       lpeversion="1"
       nodesatellites_param="F,0,0,1,0,0,0,1 @ F,0,0,1,0,0,0,1 @ F,0,0,1,0,0,0,1 @ F,0,0,1,0,0,0,1 @ F,0,0,1,0,0,0,1 @ F,0,0,1,0,0,0,1 @ F,0,0,1,0,0,0,1 @ F,0,0,1,0,0,0,1"
       radius="0"
       unit="px"
       method="auto"
       mode="F"
       chamfer_steps="1"
       flexible="false"
       use_knot_distance="true"
       apply_no_radius="true"
       apply_with_radius="true"
       only_selected="false"
       hide_knots="false" />
    <inkscape:path-effect
       effect="fillet_chamfer"
       id="path-effect1-2-53"
       is_visible="true"
       lpeversion="1"
       nodesatellites_param="F,0,0,1,0,0,0,1 @ F,0,0,1,0,0,0,1 @ F,0,0,1,0,0,0,1 @ F,0,0,1,0,0,0,1 @ F,0,0,1,0,0,0,1 @ F,0,0,1,0,0,0,1 @ F,0,0,1,0,0,0,1 @ F,0,0,1,0,0,0,1"
       radius="0"
       unit="px"
       method="auto"
       mode="F"
       chamfer_steps="1"
       flexible="false"
       use_knot_distance="true"
       apply_no_radius="true"
       apply_with_radius="true"
       only_selected="false"
       hide_knots="false" />
    <inkscape:path-effect
       effect="fillet_chamfer"
       id="path-effect1-2-8"
       is_visible="true"
       lpeversion="1"
       nodesatellites_param="F,0,0,1,0,0,0,1 @ F,0,0,1,0,0,0,1 @ F,0,0,1,0,0,0,1 @ F,0,0,1,0,0,0,1 @ F,0,0,1,0,0,0,1 @ F,0,0,1,0,0,0,1 @ F,0,0,1,0,0,0,1 @ F,0,0,1,0,0,0,1"
       radius="0"
       unit="px"
       method="auto"
       mode="F"
       chamfer_steps="1"
       flexible="false"
       use_knot_distance="true"
       apply_no_radius="true"
       apply_with_radius="true"
       only_selected="false"
       hide_knots="false" />
    <inkscape:path-effect
       effect="fillet_chamfer"
       id="path-effect1-2-1"
       is_visible="true"
       lpeversion="1"
       nodesatellites_param="F,0,0,1,0,0,0,1 @ F,0,0,1,0,0,0,1 @ F,0,0,1,0,0,0,1 @ F,0,0,1,0,0,0,1 @ F,0,0,1,0,0,0,1 @ F,0,0,1,0,0,0,1 @ F,0,0,1,0,0,0,1 @ F,0,0,1,0,0,0,1"
       radius="0"
       unit="px"
       method="auto"
       mode="F"
       chamfer_steps="1"
       flexible="false"
       use_knot_distance="true"
       apply_no_radius="true"
       apply_with_radius="true"
       only_selected="false"
       hide_knots="false" />
    <inkscape:path-effect
       effect="fillet_chamfer"
       id="path-effect1-2-3"
       is_visible="true"
       lpeversion="1"
       nodesatellites_param="F,0,0,1,0,0,0,1 @ F,0,0,1,0,0,0,1 @ F,0,0,1,0,0,0,1 @ F,0,0,1,0,0,0,1 @ F,0,0,1,0,0,0,1 @ F,0,0,1,0,0,0,1 @ F,0,0,1,0,0,0,1 @ F,0,0,1,0,0,0,1"
       radius="0"
       unit="px"
       method="auto"
       mode="F"
       chamfer_steps="1"
       flexible="false"
       use_knot_distance="true"
       apply_no_radius="true"
       apply_with_radius="true"
       only_selected="false"
       hide_knots="false" />
  </defs>
  <g
     inkscape:label="Camada 1"
     inkscape:groupmode="layer"
     id="layer1">
    <path
       style="opacity:1;fill:#585589;fill-opacity:1;stroke-width:2.22938;stroke-linecap:square;paint-order:markers stroke fill"
       id="rect1"
       width="14.287933"
       height="6.8888249"
       x="112.26234"
       y="73.225655"
       inkscape:transform-center-x="0.21611759"
       inkscape:transform-center-y="0.22433748"
       inkscape:path-effect="#path-effect1"
       sodipodi:type="rect"
       d="m 114.06646,73.225655 h 10.67969 c 0.99948,0 1.80412,0.804639 1.80412,1.804124 v 3.280577 c 0,0.999484 -0.80464,1.804124 -1.80412,1.804124 h -10.67969 c -0.99948,0 -1.80412,-0.80464 -1.80412,-1.804124 v -3.280577 c 0,-0.999485 0.80464,-1.804124 1.80412,-1.804124 z"
       ry="1.804124"
       transform="matrix(0.84704786,0,0,0.8792636,-47.184276,-34.849987)" />
    <path
       style="opacity:1;fill:#585589;fill-opacity:1;stroke-width:2.22938;stroke-linecap:square;paint-order:markers stroke fill"
       id="rect1-9"
       width="14.287933"
       height="6.8888249"
       x="112.26234"
       y="73.225655"
       inkscape:transform-center-x="0.2161189"
       inkscape:transform-center-y="0.22433729"
       inkscape:path-effect="#path-effect1-2"
       sodipodi:type="rect"
       d="m 114.06646,73.225655 h 10.67969 c 0.99948,0 1.80412,0.804639 1.80412,1.804124 v 3.280577 c 0,0.999484 -0.80464,1.804124 -1.80412,1.804124 h -10.67969 c -0.99948,0 -1.80412,-0.80464 -1.80412,-1.804124 v -3.280577 c 0,-0.999485 0.80464,-1.804124 1.80412,-1.804124 z"
       ry="1.804124"
       transform="matrix(0.84704786,0,0,0.8792636,-62.923953,-34.974036)" />
    <path
       style="fill:#585589;fill-opacity:1;stroke-width:2.22938;stroke-linecap:square;paint-order:markers stroke fill"
       id="rect1-9-1"
       width="14.287933"
       height="6.8888249"
       x="112.26234"
       y="73.225655"
       inkscape:transform-center-x="0.21611726"
       inkscape:transform-center-y="0.22433754"
       inkscape:path-effect="#path-effect1-2-9"
       sodipodi:type="rect"
       d="m 114.06646,73.225655 h 10.67969 c 0.99948,0 1.80412,0.804639 1.80412,1.804124 v 3.280577 c 0,0.999484 -0.80464,1.804124 -1.80412,1.804124 h -10.67969 c -0.99948,0 -1.80412,-0.80464 -1.80412,-1.804124 v -3.280577 c 0,-0.999485 0.80464,-1.804124 1.80412,-1.804124 z"
       ry="1.804124"
       transform="matrix(0.84704786,0,0,0.8792636,-78.564547,-35.157232)" />
    <path
       style="fill:#585589;fill-opacity:1;stroke-width:2.22938;stroke-linecap:square;paint-order:markers stroke fill"
       id="rect1-9-0"
       width="14.287933"
       height="6.8888249"
       x="112.26234"
       y="73.225655"
       inkscape:transform-center-x="0.2161189"
       inkscape:transform-center-y="0.22433661"
       inkscape:path-effect="#path-effect1-2-7"
       sodipodi:type="rect"
       d="m 114.06646,73.225655 h 10.67969 c 0.99948,0 1.80412,0.804639 1.80412,1.804124 v 3.280577 c 0,0.999484 -0.80464,1.804124 -1.80412,1.804124 h -10.67969 c -0.99948,0 -1.80412,-0.80464 -1.80412,-1.804124 v -3.280577 c 0,-0.999485 0.80464,-1.804124 1.80412,-1.804124 z"
       ry="1.804124"
       transform="matrix(0.84704786,0,0,0.8792636,-62.923953,-44.713695)" />
    <path
       style="fill:#585589;fill-opacity:1;stroke-width:2.22938;stroke-linecap:square;paint-order:markers stroke fill"
       id="rect1-9-6"
       width="14.287933"
       height="6.8888249"
       x="112.26234"
       y="73.225655"
       inkscape:transform-center-x="0.21611761"
       inkscape:transform-center-y="0.22433661"
       inkscape:path-effect="#path-effect1-2-6"
       sodipodi:type="rect"
       d="m 114.06646,73.225655 h 10.67969 c 0.99948,0 1.80412,0.804639 1.80412,1.804124 v 3.280577 c 0,0.999484 -0.80464,1.804124 -1.80412,1.804124 h -10.67969 c -0.99948,0 -1.80412,-0.80464 -1.80412,-1.804124 v -3.280577 c 0,-0.999485 0.80464,-1.804124 1.80412,-1.804124 z"
       ry="1.804124"
       transform="matrix(0.84704786,0,0,0.8792636,-78.828468,-44.713695)" />
    <path
       style="fill:#585589;fill-opacity:1;stroke-width:2.22938;stroke-linecap:square;paint-order:markers stroke fill"
       id="rect1-9-69"
       width="14.287933"
       height="6.8888249"
       x="112.26234"
       y="73.225655"
       inkscape:transform-center-x="0.21611789"
       inkscape:transform-center-y="0.22433588"
       inkscape:path-effect="#path-effect1-2-5"
       sodipodi:type="rect"
       d="m 114.06646,73.225655 h 10.67969 c 0.99948,0 1.80412,0.804639 1.80412,1.804124 v 3.280577 c 0,0.999484 -0.80464,1.804124 -1.80412,1.804124 h -10.67969 c -0.99948,0 -1.80412,-0.80464 -1.80412,-1.804124 v -3.280577 c 0,-0.999485 0.80464,-1.804124 1.80412,-1.804124 z"
       ry="1.804124"
       transform="matrix(0.84704786,0,0,0.8792636,-94.31529,-35.548551)" />
    <path
       style="fill:#585589;fill-opacity:1;stroke-width:2.22938;stroke-linecap:square;paint-order:markers stroke fill"
       id="rect1-9-3"
       width="14.287933"
       height="6.8888249"
       x="112.26234"
       y="73.225655"
       inkscape:transform-center-x="0.21611789"
       inkscape:transform-center-y="0.22433661"
       inkscape:path-effect="#path-effect1-2-53"
       sodipodi:type="rect"
       d="m 114.06646,73.225655 h 10.67969 c 0.99948,0 1.80412,0.804639 1.80412,1.804124 v 3.280577 c 0,0.999484 -0.80464,1.804124 -1.80412,1.804124 h -10.67969 c -0.99948,0 -1.80412,-0.80464 -1.80412,-1.804124 v -3.280577 c 0,-0.999485 0.80464,-1.804124 1.80412,-1.804124 z"
       ry="1.804124"
       transform="matrix(0.84704786,0,0,0.8792636,-94.31529,-44.713695)" />
    <path
       style="fill:#585589;fill-opacity:1;stroke-width:2.22938;stroke-linecap:square;paint-order:markers stroke fill"
       id="rect1-9-5"
       width="14.287933"
       height="6.8888249"
       x="112.26234"
       y="73.225655"
       inkscape:transform-center-x="0.21611789"
       inkscape:transform-center-y="0.22433624"
       inkscape:path-effect="#path-effect1-2-8"
       sodipodi:type="rect"
       d="m 114.06646,73.225655 h 10.67969 c 0.99948,0 1.80412,0.804639 1.80412,1.804124 v 3.280577 c 0,0.999484 -0.80464,1.804124 -1.80412,1.804124 h -10.67969 c -0.99948,0 -1.80412,-0.80464 -1.80412,-1.804124 v -3.280577 c 0,-0.999485 0.80464,-1.804124 1.80412,-1.804124 z"
       ry="1.804124"
       transform="matrix(0.84704786,0,0,0.8792636,-94.31529,-53.878841)" />
    <path
       style="fill:#585589;fill-opacity:1;stroke-width:2.22938;stroke-linecap:square;paint-order:markers stroke fill"
       id="rect1-9-58"
       width="14.287933"
       height="6.8888249"
       x="112.26234"
       y="73.225655"
       inkscape:transform-center-x="0.21611761"
       inkscape:transform-center-y="0.22433758"
       inkscape:path-effect="#path-effect1-2-1"
       sodipodi:type="rect"
       d="m 114.06646,73.225655 h 10.67969 c 0.99948,0 1.80412,0.804639 1.80412,1.804124 v 3.280577 c 0,0.999484 -0.80464,1.804124 -1.80412,1.804124 h -10.67969 c -0.99948,0 -1.80412,-0.80464 -1.80412,-1.804124 v -3.280577 c 0,-0.999485 0.80464,-1.804124 1.80412,-1.804124 z"
       ry="1.804124"
       transform="matrix(0.84704786,0,0,0.8792636,-78.828468,-54.270157)" />
    <path
       style="fill:#585589;fill-opacity:1;stroke-width:2.22938;stroke-linecap:square;paint-order:markers stroke fill"
       id="rect1-9-2"
       width="14.287933"
       height="6.8888249"
       x="112.26234"
       y="73.225655"
       inkscape:transform-center-x="0.21611789"
       inkscape:transform-center-y="0.22433595"
       inkscape:path-effect="#path-effect1-2-3"
       sodipodi:type="rect"
       d="m 114.06646,73.225655 h 10.67969 c 0.99948,0 1.80412,0.804639 1.80412,1.804124 v 3.280577 c 0,0.999484 -0.80464,1.804124 -1.80412,1.804124 h -10.67969 c -0.99948,0 -1.80412,-0.80464 -1.80412,-1.804124 v -3.280577 c 0,-0.999485 0.80464,-1.804124 1.80412,-1.804124 z"
       ry="1.804124"
       transform="matrix(0.84704786,0,0,0.8792636,-94.31529,-63.043986)" />
  </g>
</svg>
